<svg width="30" height="30" viewBox="0 0 30 30" fill="none" xmlns="http://www.w3.org/2000/svg">
<g clip-path="url(#clip0_306_1696)">
<path d="M14.9841 22.483C19.1033 22.483 22.4431 19.1438 22.4431 15.024C22.4431 10.9043 19.1039 7.56506 14.9841 7.56506C10.8644 7.56506 7.52515 10.9043 7.52515 15.024C7.52515 19.1438 10.8644 22.483 14.9841 22.483Z" fill="white"/>
<path d="M8.52432 18.7547L2.06611 7.56854C0.756543 9.83612 0.0668945 12.4084 0.0668945 15.0269C0.0668945 17.6455 0.755957 20.2178 2.06553 22.4853C3.3751 24.7529 5.2583 26.6355 7.52647 27.9445C9.79463 29.2535 12.3669 29.942 14.9855 29.9414L21.4437 18.7547V18.7529C20.7897 19.8873 19.8481 20.8295 18.7144 21.4846C17.5806 22.1396 16.2944 22.4848 14.9849 22.4848C13.6753 22.4848 12.3892 22.1402 11.2548 21.4857C10.1204 20.8312 9.17881 19.889 8.52432 18.7547Z" fill="url(#paint0_linear_306_1696)"/>
<path d="M21.4431 18.7547L14.9849 29.9408C17.6034 29.9414 20.1757 29.2524 22.4433 27.9428C24.7108 26.6338 26.594 24.7506 27.903 22.483C29.212 20.2154 29.9011 17.6426 29.9005 15.024C29.8999 12.4055 29.2103 9.83322 27.9001 7.56622H14.9837L14.9819 7.56739C16.2915 7.56681 17.5782 7.91075 18.712 8.56525C19.8464 9.21974 20.788 10.1613 21.4431 11.2951C22.0981 12.4289 22.4427 13.7156 22.4427 15.0252C22.4433 16.3342 22.0981 17.6203 21.4431 18.7547Z" fill="url(#paint1_linear_306_1696)"/>
<path d="M14.9842 20.9303C18.2455 20.9303 20.8893 18.2865 20.8893 15.0252C20.8893 11.7639 18.2455 9.12012 14.9842 9.12012C11.7229 9.12012 9.0791 11.7639 9.0791 15.0252C9.0791 18.2865 11.7229 20.9303 14.9842 20.9303Z" fill="#1A73E8"/>
<path d="M14.9841 7.56677H27.9011C26.5921 5.29861 24.7089 3.41541 22.4413 2.10642C20.1737 0.796851 17.6015 0.107788 14.9829 0.107788C12.3644 0.107788 9.79209 0.797436 7.52451 2.10701C5.25693 3.41658 3.37432 5.30037 2.06592 7.56794L8.52412 18.7547L8.52588 18.7558C7.8708 17.622 7.5251 16.3359 7.5251 15.0263C7.5251 13.7168 7.86904 12.4301 8.52354 11.2963C9.17803 10.1619 10.1196 9.22029 11.254 8.5658C12.3878 7.91072 13.6745 7.56619 14.9841 7.56677Z" fill="url(#paint2_linear_306_1696)"/>
</g>
<defs>
<linearGradient id="paint0_linear_306_1696" x1="16.5988" y1="29.0097" x2="3.68133" y2="6.63589" gradientUnits="userSpaceOnUse">
<stop stop-color="#1E8E3E"/>
<stop offset="1" stop-color="#34A853"/>
</linearGradient>
<linearGradient id="paint1_linear_306_1696" x1="12.8081" y1="29.9805" x2="25.7256" y2="7.60668" gradientUnits="userSpaceOnUse">
<stop stop-color="#FCC934"/>
<stop offset="1" stop-color="#FBBC04"/>
</linearGradient>
<linearGradient id="paint2_linear_306_1696" x1="2.06584" y1="9.43179" x2="27.9009" y2="9.43179" gradientUnits="userSpaceOnUse">
<stop stop-color="#D93025"/>
<stop offset="1" stop-color="#EA4335"/>
</linearGradient>
<clipPath id="clip0_306_1696">
<rect width="30" height="30" fill="white"/>
</clipPath>
</defs>
</svg>
